<?xml version="1.0" encoding="utf-8"?>
<!-- Generator: Adobe Illustrator 15.0.0, SVG Export Plug-In . SVG Version: 6.00 Build 0)  -->
<!DOCTYPE svg PUBLIC "-//W3C//DTD SVG 1.1//EN" "http://www.w3.org/Graphics/SVG/1.1/DTD/svg11.dtd">
<svg version="1.1" id="Layer_1" xmlns="http://www.w3.org/2000/svg" xmlns:xlink="http://www.w3.org/1999/xlink" x="0px" y="0px"
	 width="595.28px" height="422.896px" viewBox="0 0 595.28 422.896" enable-background="new 0 0 595.28 422.896"
	 xml:space="preserve">
<g>
	<g id="XMLID_1_">
		<g>
			<path fill="none" stroke="#FFFFFF" stroke-miterlimit="10" d="M592.9,137.549c7.406,17.718,5.953,33.111-7.117,47.925
				c-26.721,30.498-52.861,61.431-79.293,92.218c-4.938,5.81-10.02,11.327-15.248,17.282c5.809,13.506,11.473,26.576,17.137,39.5
				c5.953,13.652,4.066,26.141-4.938,38.051c-14.812,19.459-34.709,30.207-58.525,30.352c-8.859,0-20.043-5.373-25.996-12.055
				c-12.779-14.377-22.945-31.223-34.129-47.197c-2.322-3.34-4.355-6.971-7.406-11.908c-18.152,35.725-35.725,68.547-83.359,67.238
				c-45.02-1.307-70.724-22.654-82.342-67.529c-13.07,24.252-24.107,45.455-35.871,66.514
				c-14.522,25.705-58.671,33.691-80.601,13.797c-11.182-10.021-20.331-22.51-29.626-34.42
				c-10.021-12.924-8.858-29.045-4.647-42.695c7.988-26.141,1.598-46.182-17.717-64.19c-6.971-6.535-11.909-15.248-18.008-22.801
				c-26.141-32.676-29.481-69.272-12.926-106.014c13.797-31.224,30.934-61.14,49.812-89.459
				c21.203-32.095,65.062-28.029,82.053,6.535c13.941,28.174,25.995,57.219,37.468,82.633
				c25.561-23.091,52.572-47.634,79.875-71.887c5.954-5.228,13.071-9.149,20.042-13.361c23.381-14.232,46.617-13.796,68.691,2.179
				c14.668,10.602,28.318,22.51,42.986,34.418c1.598-4.211,3.34-8.714,5.082-13.216c9.586-25.269,23.383-47.779,42.553-66.804
				c14.086-14.087,30.205-16.701,47.197-6.39c11.473,6.971,22.656,14.813,32.531,23.962C552.963,60.289,576.055,96.74,592.9,137.549
				z M569.229,171.677c4.066-4.792,7.842-13.796,5.953-18.734c-18.443-51.7-47.633-95.849-94.25-126.492
				c-12.635-8.278-19.316-7.987-28.174,4.502c-13.07,18.444-23.963,38.34-35.58,57.8c-4.066,6.971-2.18,12.925,2.469,19.605
				c17.426,24.834,34.709,49.958,50.973,75.518c4.793,7.552,6.246,17.427,9.295,26.141c-1.162,0.436-2.322,1.017-3.484,1.452
				c-1.598-2.179-3.195-4.356-4.648-6.535c-13.506,17.573-26.43,34.709-39.791,51.555c-10.746,13.65-21.783,26.866-32.676,40.372
				c-7.262,8.859-8.133,17.719-1.307,27.594c9.584,13.941,18.152,28.465,27.883,42.26c12.635,17.719,20.912,19.896,40.373,9.877
				c6.971-3.631,13.07-9.15,18.879-14.523c5.955-5.664,7.406-12.635,3.486-20.768c-5.375-10.891-9.586-22.51-15.395-33.256
				c-2.469-4.502-7.988-7.406-12.49-11.473c0,0,2.033-2.033,3.922-4.213C499.666,252.131,534.811,212.195,569.229,171.677z
				 M424.873,202.319c9.006-10.892,10.893-21.493,2.18-32.24c-7.553-9.294-17.863-16.265-28.174-25.27
				c-10.893,31.514-20.477,59.397-30.062,87.28c-0.58,1.598-1.016,3.195-1.742,4.793c-4.357,9.295,1.598,12.344,8.859,15.539
				c3.775-8.277,7.115-15.684,10.602-23.236c0.58,0.146,1.16,0.436,1.742,0.582c-0.146,2.322-0.146,4.646-0.436,6.971
				c-2.904,20.912-1.162,24.688,16.701,34.127c1.887,1.018,5.227,1.889,6.68,0.871c1.453-1.016,2.178-4.211,2.033-6.535
				c-0.145-2.904-0.58-6.1-2.033-8.568c-12.344-21.203-5.955-38.049,11.764-52.426C423.857,203.627,424.293,202.9,424.873,202.319z
				 M377.676,123.752c0.871-3.776-0.145-10.166-2.76-12.489C358.65,97.321,342.24,83.67,324.959,71.036
				c-9.004-6.535-19.75-5.519-28.318,1.743c-13.797,11.618-27.739,23.381-39.792,36.742c-8.278,9.149-17.137,20.477-19.17,32.095
				c-5.664,32.676,1.598,65.062,6.681,98.899c8.858-1.889,15.975-4.066,23.381-5.084c9.004-1.307,10.456-6.389,9.149-14.23
				c-1.307-8.569-1.598-17.283-2.322-25.997c12.635,0,23.961,0.581,35.143-0.145c10.602-0.727,11.91,4.502,8.859,12.344
				c-2.904,7.407-6.971,14.233-11.473,23.09c6.535,1.889,11.619,3.486,16.846,4.938c17.283,4.939,21.639,2.906,28.609-13.65
				c0.873-1.889,1.453-3.922,2.033-5.955C362.428,184.893,370.414,154.395,377.676,123.752z M371.867,309.642
				c0.436-9.004,4.355-19.461,0.871-24.543c-23.381-33.257-71.451-47.054-108.629-31.224c-11.618,4.938-21.493,14.521-31.078,23.236
				c-18.008,15.974-17.572,16.265-8.423,38.774c0.29,0.58,1.162,1.016,1.888,1.742c2.324-0.871,4.647-1.598,6.971-2.76
				c29.336-16.119,60.85-21.783,93.961-20.477c4.066,0.146,10.455,0.146,11.764,2.469
				C345.58,308.625,357.053,307.173,371.867,309.642z M355.602,330.99c-5.809,2.178-9.586,2.904-12.344,4.938
				c-9.295,6.391-18.299,11.037-30.207,6.391c-14.959-5.811-30.207-10.602-45.601-14.814c-13.07-3.484-26.432-5.518-40.954-8.422
				c12.635,43.277,27.448,58.961,55.042,60.559C324.377,381.818,338.174,373.25,355.602,330.99z M315.373,336.654
				c9.73,3.484,16.701,0.289,24.979-7.553c-14.666-4.355-27.736-8.277-39.209-11.764c12.197-2.469,25.414-5.082,39.791-7.842
				c-10.311-13.795-60.414-10.311-86.7,4.213c4.502,2.613,7.987,5.518,12.054,6.824
				C282.697,326.052,299.254,330.845,315.373,336.654z M190.625,283.646c12.634,4.211,41.97-18.88,41.099-32.239
				c0-0.727-0.871-1.309-2.469-3.051c-2.76,2.469-4.938,4.211-6.971,6.391c-6.681,6.971-13.942,9.584-22.365,3.34
				c-8.423-6.391-6.681-13.506-2.614-22.219c8.424-17.863,16.556-36.017,22.655-54.606c4.357-13.361,4.357-27.593-3.775-43.713
				c-23.236,31.805-44.439,61.721-52.717,98.028C158.385,257.942,170.875,277.112,190.625,283.646z M198.757,310.078
				c-10.746-10.457-12.198-10.602-20.186-2.033c-11.618,12.779-23.382,25.559-34.709,38.629c-1.743,2.033-1.308,5.811-2.033,8.715
				c-29.481,1.162-39.502-12.781-28.61-40.082c2.179-5.52,4.938-10.748,7.843-15.83c6.1-10.602,12.344-21.058,18.734-31.515
				c6.39-10.311,7.406-20.332-1.017-30.934c-7.407,5.375-14.959,10.602-22.22,16.266c-8.859,6.971-16.701,7.406-23.526-2.322
				c-9.73-13.797-19.461-27.449-29.046-41.39c-5.809-8.568-5.373-17.718,0.146-26.141c7.843-11.909,16.266-23.381,24.834-35.871
				c-1.308-0.726-3.341-2.033-5.374-3.195c1.308-1.598,2.614-3.195,3.922-4.647c5.228,3.775,11.618,6.39,15.394,11.327
				c9.295,11.909,16.991,25.125,26.141,37.323c6.39,8.423,21.058,8.133,23.236-0.29c4.356-17.428,10.746-35.29,3.194-53.298
				c-9.729-22.946-19.896-45.601-30.643-67.965c-8.713-18.153-34.272-20.913-45.165-3.34
				c-17.718,28.609-35.145,57.655-49.086,88.152c-13.07,28.609-9.585,57.654,11.183,83.214
				c8.277,10.166,15.104,21.783,24.543,30.643c18.734,17.573,25.705,37.032,16.556,61.866c-2.469,6.535-2.76,14.088-2.76,21.203
				c0,5.664,0.146,12.635,3.05,16.846c7.697,10.893,16.266,21.494,25.996,30.789c10.311,9.875,39.791,5.953,46.763-6.246
				C170.875,363.521,184.67,336.507,198.757,310.078z"/>
			<path fill="none" stroke="#FFFFFF" stroke-miterlimit="10" d="M575.182,152.943c1.744,5.083-1.887,14.087-5.953,18.734
				c-34.418,40.519-69.562,80.455-104.562,120.538c-1.889,2.178-3.922,4.211-3.922,4.211c4.502,3.922,9.875,6.826,12.49,11.473
				c5.809,10.748,10.02,22.365,15.395,33.258c3.92,8.133,2.469,15.104-3.486,20.768c-5.809,5.373-11.908,10.891-18.879,14.521
				c-19.461,10.021-27.738,7.988-40.373-9.875c-9.73-13.797-18.299-28.318-27.883-42.26c-6.682-9.877-5.955-18.734,1.307-27.594
				c10.893-13.361,22.074-26.722,32.676-40.372c13.361-16.848,26.285-33.984,39.791-51.556c1.453,2.179,3.051,4.357,4.648,6.535
				c1.162-0.436,2.322-1.017,3.484-1.452c-3.049-8.713-4.355-18.589-9.295-26.141c-16.264-25.56-33.547-50.684-50.973-75.517
				c-4.648-6.681-6.535-12.635-2.469-19.605c11.617-19.46,22.51-39.501,35.58-57.8c8.857-12.49,15.684-12.78,28.174-4.502
				C527.549,57.094,556.738,101.243,575.182,152.943z"/>
			<path fill="none" stroke="#FFFFFF" stroke-miterlimit="10" d="M427.053,170.08c8.568,10.747,6.68,21.348-2.18,32.24
				c-0.58,0.581-1.016,1.308-1.596,1.888c-17.863,14.377-24.109,31.223-11.764,52.426c1.451,2.469,2.033,5.664,2.033,8.568
				c0,2.18-0.582,5.52-2.033,6.535c-1.453,1.018-4.793,0.146-6.682-0.871c-18.008-9.439-19.605-13.215-16.701-34.127
				c0.291-2.324,0.291-4.648,0.438-6.971c-0.582-0.146-1.162-0.436-1.744-0.582c-3.484,7.553-6.824,14.959-10.602,23.236
				c-7.26-3.195-13.215-6.1-8.857-15.539c0.725-1.598,1.16-3.195,1.742-4.793c9.584-27.883,19.17-55.621,30.061-87.28
				C409.189,153.814,419.5,160.785,427.053,170.08z M414.271,198.253c-2.613-6.68-5.227-13.215-7.842-19.896
				c-1.451,0.291-2.904,0.726-4.355,1.017c-2.76,6.39-5.52,12.925-8.424,19.315c0.727,1.597,1.453,3.049,2.178,4.646
				C402.074,201.594,408.174,199.851,414.271,198.253z"/>
			<path fill="none" stroke="#FFFFFF" stroke-miterlimit="10" d="M406.43,178.357c2.615,6.68,5.229,13.216,7.842,19.896
				c-6.098,1.743-12.197,3.341-18.297,5.083c-0.727-1.598-1.453-3.05-2.18-4.646c2.76-6.391,5.52-12.926,8.424-19.315
				C403.525,179.083,404.979,178.648,406.43,178.357z"/>
			<path fill="none" stroke="#FFFFFF" stroke-miterlimit="10" d="M374.916,111.263c2.615,2.324,3.631,8.568,2.76,12.489
				c-7.262,30.788-15.104,61.285-22.945,91.928c-0.582,2.033-1.162,4.066-2.033,5.955c-6.971,16.555-11.328,18.588-28.609,13.65
				c-5.229-1.451-10.312-3.049-16.846-4.938c4.5-8.859,8.566-15.684,11.471-23.091c3.051-7.696,1.598-13.07-8.857-12.344
				c-11.182,0.727-22.51,0.146-35.145,0.146c0.727,8.568,1.016,17.281,2.324,25.995c1.16,7.842-0.146,12.926-9.15,14.232
				c-7.406,1.018-14.668,3.195-23.382,5.084c-5.083-33.693-12.344-66.224-6.68-98.899c2.033-11.473,10.892-22.946,19.169-32.095
				c12.054-13.36,25.996-25.124,39.792-36.742c8.568-7.116,19.314-8.278,28.318-1.743C342.096,83.67,358.65,97.321,374.916,111.263z
				 M321.184,146.117c0.436-0.145,1.016-0.145,1.596-0.291c-2.322-12.344-4.211-24.833-7.406-36.887
				c-1.016-3.921-4.938-9.149-8.422-9.875c-2.76-0.581-8.133,4.211-9.73,7.697c-6.244,14.232-11.764,28.754-16.846,43.422
				c-2.904,8.568,1.307,14.522,9.148,18.444c18.879,9.584,31.514,2.178,31.66-18.734
				C321.184,148.586,321.184,147.424,321.184,146.117z"/>
			<path fill="none" stroke="#FFFFFF" stroke-miterlimit="10" d="M372.738,285.099c3.631,5.082-0.291,15.539-0.871,24.543
				c-14.814-2.615-26.287-1.162-32.967-12.781c-1.307-2.322-7.697-2.322-11.764-2.469c-33.111-1.307-64.625,4.357-93.96,20.477
				c-2.179,1.162-4.647,1.889-6.971,2.76c-0.727-0.727-1.598-1.162-1.888-1.742c-9.295-22.51-9.585-22.801,8.423-38.774
				c9.585-8.568,19.605-18.299,31.078-23.236C301.287,238.045,349.211,251.987,372.738,285.099z"/>
			<path fill="none" stroke="#FFFFFF" stroke-miterlimit="10" d="M343.258,335.783c2.904-1.889,6.535-2.615,12.344-4.938
				c-17.428,42.26-31.369,50.828-74.064,48.504c-27.593-1.451-42.407-17.281-55.042-60.559c14.522,2.904,27.884,4.938,40.954,8.424
				c15.394,4.211,30.642,9.148,45.601,14.812C324.959,346.82,333.963,342.171,343.258,335.783z M273.404,339.414
				c7.842,13.359,19.75,11.908,31.949,8.857C294.896,345.367,284.441,342.462,273.404,339.414z"/>
			<path fill="none" stroke="#FFFFFF" stroke-miterlimit="10" d="M340.498,328.957c-8.424,7.986-15.248,11.182-24.979,7.551
				c-16.121-5.809-32.822-10.602-49.086-16.119c-4.066-1.453-7.552-4.211-12.054-6.826c26.285-14.521,76.388-18.008,86.699-4.211
				c-14.377,2.904-27.592,5.518-39.791,7.842C312.76,320.679,325.83,324.599,340.498,328.957z"/>
			<path fill="none" stroke="#FFFFFF" stroke-miterlimit="10" d="M322.779,145.827c-0.58,0.146-1.016,0.146-1.596,0.291
				c0,1.307,0,2.469,0,3.776c-0.146,20.913-12.781,28.319-31.66,18.734c-7.697-3.921-12.053-9.875-9.148-18.444
				c5.082-14.668,10.602-29.19,16.846-43.422c1.598-3.486,7.115-8.278,9.73-7.697c3.34,0.726,7.406,5.809,8.422,9.875
				C318.424,120.993,320.311,133.482,322.779,145.827z"/>
			<path fill="none" stroke="#FFFFFF" stroke-miterlimit="10" d="M305.354,348.271c-12.199,3.051-23.963,4.502-31.949-8.857
				C284.441,342.462,294.896,345.367,305.354,348.271z"/>
			<path fill="none" stroke="#FFFFFF" stroke-miterlimit="10" d="M231.724,251.407c0.871,13.359-28.465,36.306-41.099,32.239
				c-19.896-6.534-32.24-25.704-27.013-48.069c8.424-36.307,29.481-66.223,52.717-98.028c8.133,15.975,8.133,30.353,3.776,43.713
				c-6.1,18.734-14.232,36.887-22.655,54.606c-4.066,8.713-5.81,15.828,2.614,22.219c8.423,6.391,15.685,3.631,22.364-3.34
				c2.033-2.033,4.212-3.922,6.971-6.391C230.853,250.245,231.724,250.825,231.724,251.407z M180.895,218.584
				c15.104-2.469,24.834-22.655,22.51-39.792c-1.162-0.436-2.323-0.871-3.631-1.162C193.82,190.557,187.72,203.627,180.895,218.584z
				"/>
			<path fill="none" stroke="#FFFFFF" stroke-miterlimit="10" d="M203.405,178.648c2.324,17.136-7.261,37.323-22.51,39.792
				c6.825-14.958,12.925-28.029,18.879-41.099C200.936,177.922,202.098,178.357,203.405,178.648z"/>
			<path fill="none" stroke="#FFFFFF" stroke-miterlimit="10" d="M178.572,308.189c7.842-8.568,9.439-8.424,20.186,2.033
				c-14.087,26.432-27.883,53.443-42.841,79.729c-6.972,12.199-36.307,16.121-46.763,6.246c-9.73-9.295-18.299-19.896-25.996-30.789
				c-3.05-4.211-3.194-11.182-3.05-16.846c0-7.115,0.291-14.668,2.76-21.203c9.149-24.834,2.179-44.293-16.556-61.866
				c-9.439-8.859-16.266-20.477-24.543-30.643c-20.768-25.56-24.253-54.605-11.183-83.214
				c13.941-30.498,31.368-59.688,49.086-88.152c10.893-17.427,36.452-14.813,45.311,3.63c10.747,22.365,20.913,45.166,30.643,67.966
				c7.552,18.008,1.162,35.871-3.194,53.298c-2.179,8.423-16.847,8.714-23.236,0.29c-9.149-12.053-16.847-25.269-26.141-37.323
				c-3.776-4.792-10.166-7.552-15.395-11.328c-1.307,1.598-2.613,3.195-3.921,4.647c2.033,1.162,4.066,2.469,5.373,3.195
				c-8.713,12.344-16.991,23.962-24.833,35.871c-5.519,8.423-6.1,17.572-0.146,26.141c9.439,13.942,19.315,27.592,29.045,41.389
				c6.972,9.73,14.813,9.295,23.527,2.324c7.261-5.664,14.812-10.893,22.219-16.266c8.278,10.457,7.262,20.623,1.017,30.934
				c-6.39,10.456-12.634,20.911-18.733,31.513c-2.905,5.084-5.664,10.457-7.843,15.83c-10.892,27.303-0.871,41.1,28.609,40.082
				c0.581-3.049,0.291-6.824,2.033-8.713C155.19,333.75,166.954,320.968,178.572,308.189z"/>
		</g>
	</g>
</g>
</svg>
