<?xml version="1.0" encoding="utf-8"?>
<!-- Generator: Adobe Illustrator 19.1.0, SVG Export Plug-In . SVG Version: 6.00 Build 0)  -->
<svg version="1.1" id="Layer_1" xmlns="http://www.w3.org/2000/svg" xmlns:xlink="http://www.w3.org/1999/xlink" x="0px" y="0px"
	 viewBox="0 0 409.9 291.1" style="enable-background:new 0 0 409.9 291.1;" xml:space="preserve">
<style type="text/css">
	.st0{fill:#FFFFFF;}
</style>
<g>
	<path class="st0" d="M144.3,228.2c8,30.9,25.8,45.7,56.7,46.5c32.9,0.9,44.9-21.6,57.4-46.3c2.1,3.4,3.5,5.9,5.1,8.2
		c7.7,10.9,14.6,22.5,23.4,32.5c4.1,4.6,11.9,8.4,17.9,8.3c16.4-0.1,30.1-7.5,40.3-20.9c6.2-8.1,7.5-16.7,3.4-26.2
		c-3.9-9-7.8-18-11.8-27.2c3.6-4.1,7.1-7.9,10.5-11.9c18.2-21.2,36.2-42.6,54.6-63.5c9-10.2,9.9-20.8,4.9-33
		c-11.6-28-27.5-53.2-49.9-73.8c-6.8-6.3-14.5-11.7-22.4-16.5c-11.7-7.1-22.8-5.3-32.5,4.4c-13.2,13.1-22.7,28.6-29.3,46
		c-1.2,3.1-2.4,6.2-3.5,9.1c-10.1-8.2-19.5-16.4-29.6-23.7c-15.2-11-31.3-11.4-47.3-1.5c-4.7,2.9-9.7,5.6-13.7,9.2
		c-18.8,16.7-37.4,33.7-55,49.5c-7.9-17.4-16.2-37.5-25.8-56.9C86.2,16.6,56,13.8,41.4,35.9C28.4,55.4,16.6,76,7,97.3
		c-11.4,25.3-9.1,50.5,8.9,73c4.2,5.2,7.6,11.2,12.4,15.7c13.3,12.4,17.7,26.2,12.2,44.2c-2.9,9.4-3.6,20.5,3.2,29.4
		c6.4,8.3,12.7,16.8,20.3,23.7c15.1,13.7,45.6,8.2,55.5-9.5C127.7,259.5,135.4,244.9,144.3,228.2z"/>
	<path d="M144.3,228.2c-9,16.7-16.6,31.3-24.7,45.8c-10,17.7-40.4,23.2-55.5,9.5c-7.7-7-14-15.5-20.3-23.7c-6.9-8.9-6.1-20-3.2-29.4
		c5.5-18,1.1-31.8-12.2-44.2c-4.8-4.5-8.2-10.5-12.4-15.7c-18-22.5-20.3-47.7-8.9-73C16.6,76,28.4,55.4,41.4,35.9
		C56,13.8,86.2,16.6,97.9,40.4c9.6,19.4,17.9,39.4,25.8,56.9c17.6-15.9,36.2-32.9,55-49.5c4.1-3.6,9-6.3,13.7-9.2
		c16.1-9.9,32.1-9.5,47.3,1.5c10.1,7.3,19.5,15.5,29.6,23.7c1.1-2.9,2.3-6,3.5-9.1c6.6-17.4,16.1-32.9,29.3-46
		c9.7-9.7,20.8-11.5,32.5-4.4c7.9,4.8,15.6,10.3,22.4,16.5c22.4,20.6,38.3,45.8,49.9,73.8c5.1,12.2,4.1,22.8-4.9,33
		c-18.4,21-36.4,42.3-54.6,63.5c-3.4,4-6.9,7.8-10.5,11.9c4,9.3,7.9,18.3,11.8,27.2c4.1,9.4,2.8,18-3.4,26.2
		c-10.2,13.4-23.9,20.8-40.3,20.9c-6.1,0-13.8-3.7-17.9-8.3c-8.8-9.9-15.8-21.5-23.4-32.5c-1.6-2.3-3-4.8-5.1-8.2
		c-12.5,24.6-24.6,47.2-57.4,46.3C170.1,273.9,152.4,259.1,144.3,228.2z M323.5,141.1c-9.3,12.1-18.2,23.9-27.4,35.5
		c-7.4,9.4-15,18.5-22.5,27.7c-5,6.1-5.6,12.3-0.9,19c6.6,9.6,12.5,19.6,19.2,29.1c8.7,12.2,14.4,13.7,27.8,6.8c4.8-2.5,9-6.3,13-10
		c4.1-3.9,5.1-8.7,2.4-14.3c-3.7-7.6-6.6-15.5-10.6-22.9c-1.7-3.1-5.5-5.1-8.6-7.9c0,0,1.4-1.4,2.7-2.9c24.1-27.6,48.3-55.1,72-83
		c2.8-3.3,5.4-9.5,4.1-12.9c-12.7-35.6-32.8-66-64.9-87.1c-8.7-5.7-13.3-5.5-19.4,3.1c-9,12.7-16.5,26.4-24.5,39.8
		c-2.8,4.8-1.5,8.9,1.7,13.5c12,17.1,23.9,34.3,35.1,52c3.3,5.2,4.3,12,6.4,18c-0.8,0.3-1.6,0.7-2.4,1
		C325.6,144.1,324.5,142.6,323.5,141.1z M56.4,99.7c0.9-1.1,1.8-2.2,2.7-3.2c3.6,2.5,8,4.5,10.6,7.8c6.4,8.2,11.7,17.3,18,25.6
		c4.4,5.8,14.5,5.6,15.9-0.2c3-12,7.4-24.3,2.2-36.7c-6.7-15.8-13.7-31.4-21.1-46.8C78.6,33.5,61,31.6,53.5,43.6
		c-12.2,19.7-24.2,39.7-33.8,60.7c-9,19.7-6.6,39.7,7.7,57.3c5.7,7,10.4,15,16.9,21.1c12.9,12.1,17.7,25.5,11.4,42.6
		c-1.7,4.5-1.9,9.7-1.9,14.6c0,3.9,0.1,8.7,2.1,11.6c5.3,7.5,11.2,14.8,17.9,21.2c7.1,6.8,27.4,4.1,32.2-4.3
		c10.3-18.1,19.8-36.7,29.5-54.9c-7.4-7.2-8.4-7.3-13.9-1.4c-8,8.8-16.1,17.6-23.9,26.6c-1.2,1.4-0.9,4-1.4,6
		c-20.3,0.8-27.2-8.8-19.7-27.6c1.5-3.8,3.4-7.4,5.4-10.9c4.2-7.3,8.5-14.5,12.9-21.7c4.4-7.1,5.1-14-0.7-21.3
		c-5.1,3.7-10.3,7.3-15.3,11.2c-6.1,4.8-11.5,5.1-16.2-1.6c-6.7-9.5-13.4-18.9-20-28.5c-4-5.9-3.7-12.2,0.1-18
		c5.4-8.2,11.2-16.1,17.1-24.7C59.2,101.4,57.8,100.5,56.4,99.7z M210.2,158.5c4.5,1.3,8,2.4,11.6,3.4c11.9,3.4,14.9,2,19.7-9.4
		c0.6-1.3,1-2.7,1.4-4.1c5.3-21.1,10.8-42.1,15.8-63.3c0.6-2.6-0.1-7-1.9-8.6c-11.2-9.6-22.5-19-34.4-27.7
		c-6.2-4.5-13.6-3.8-19.5,1.2c-9.5,8-19.1,16.1-27.4,25.3c-5.7,6.3-11.8,14.1-13.2,22.1c-3.9,22.5,1.1,44.8,4.6,68
		c6.1-1.3,11-2.8,16.1-3.5c6.2-0.9,7.2-4.4,6.3-9.8c-0.9-5.9-1.1-11.9-1.6-17.9c8.7,0,16.5,0.4,24.2-0.1c7.3-0.5,8.2,3.1,6.1,8.5
		C216.2,147.7,213.3,152.4,210.2,158.5z M254.7,213.2c0.3-6.2,3-13.4,0.6-16.9c-16.1-22.8-49.2-32.4-74.8-21.5
		c-8,3.4-14.8,10-21.4,16c-12.4,11-12.2,11.2-5.7,26.7c0.2,0.5,0.8,0.7,1.3,1.2c1.6-0.6,3.3-1.1,4.8-1.9c20.2-11,41.9-15,64.7-14.1
		c2.8,0.1,7.1,0.1,8.1,1.7C236.6,212.5,244.5,211.5,254.7,213.2z M156.5,171c-1.9,1.7-3.4,2.9-4.8,4.4c-4.6,4.8-9.6,6.6-15.4,2.3
		c-5.8-4.4-4.6-9.3-1.8-15.3c5.8-12.3,11.4-24.8,15.6-37.6c3-9.2,3-19-2.6-30.1c-16,21.9-30.6,42.5-36.3,67.5
		c-3.6,15.4,5,28.6,18.6,33.1c8.7,2.9,28.9-13,28.3-22.2C158.2,172.7,157.6,172.3,156.5,171z M243.5,227.9c-4,1.5-6.6,2-8.5,3.3
		c-6.4,4.4-12.6,7.6-20.8,4.4c-10.3-3.9-20.8-7.3-31.4-10.2c-8.9-2.4-18.2-3.8-28.1-5.8c8.7,29.8,18.9,40.6,37.9,41.7
		C222,262.9,231.5,257,243.5,227.9z M264.9,157.7c0.4,0.1,0.8,0.3,1.2,0.4c-0.1,1.6-0.1,3.2-0.3,4.8c-2,14.4-0.8,17,11.5,23.5
		c1.3,0.7,3.6,1.3,4.6,0.6c1-0.7,1.5-2.9,1.4-4.5c-0.1-2-0.4-4.2-1.4-5.9c-8.5-14.6-4.2-26.2,8.1-36.1c0.4-0.4,0.8-0.9,1.2-1.3
		c6.2-7.5,7.5-14.8,1.5-22.2c-5.2-6.4-12.3-11.2-19.4-17.4c-7.5,21.7-14.1,40.9-20.7,60.1c-0.4,1.1-0.7,2.2-1.2,3.3
		c-3,6.4,1.2,8.5,6.1,10.7C260.2,168,262.6,162.8,264.9,157.7z M173.8,215.9c3.1,1.8,5.5,3.8,8.3,4.7c11.2,3.9,22.6,7.1,33.8,11.1
		c6.7,2.4,11.5,0.3,17.3-5.3c-10.1-3-19.1-5.7-27-8.1c8.4-1.7,17.5-3.5,27.4-5.4C226.4,203.6,191.9,205.9,173.8,215.9z"/>
	<path class="st0" d="M323.5,141.1c1.1,1.5,2.1,3,3.2,4.5c0.8-0.3,1.6-0.7,2.4-1c-2.1-6-3-12.8-6.4-18c-11.2-17.6-23.1-34.9-35.1-52
		c-3.2-4.6-4.5-8.7-1.7-13.5c8-13.4,15.5-27.2,24.5-39.8c6.1-8.7,10.7-8.8,19.4-3.1c32.1,21.2,52.2,51.6,64.9,87.1
		c1.2,3.5-1.3,9.7-4.1,12.9c-23.7,27.9-47.9,55.4-72,83c-1.3,1.5-2.8,3-2.7,2.9c3.1,2.7,6.8,4.7,8.6,7.9c4,7.4,6.9,15.3,10.6,22.9
		c2.7,5.5,1.7,10.4-2.4,14.3c-4,3.7-8.2,7.5-13,10c-13.4,6.9-19.1,5.5-27.8-6.8c-6.7-9.5-12.6-19.5-19.2-29.1
		c-4.7-6.8-4.1-12.9,0.9-19c7.5-9.2,15.2-18.4,22.5-27.7C305.2,165,314.2,153.2,323.5,141.1z"/>
	<path class="st0" d="M56.4,99.7c1.4,0.8,2.9,1.7,3.7,2.2c-5.9,8.5-11.7,16.5-17.1,24.7c-3.8,5.8-4.2,12.1-0.1,18
		c6.5,9.6,13.3,19,20,28.5c4.8,6.7,10.2,6.4,16.2,1.6c5-3.9,10.2-7.5,15.3-11.2c5.7,7.2,5,14.2,0.7,21.3
		c-4.4,7.2-8.7,14.4-12.9,21.7c-2,3.5-3.9,7.2-5.4,10.9c-7.5,18.8-0.6,28.3,19.7,27.6c0.4-2.1,0.2-4.7,1.4-6
		c7.8-9,15.8-17.8,23.9-26.6c5.4-5.9,6.5-5.8,13.9,1.4c-9.7,18.2-19.2,36.8-29.5,54.9c-4.8,8.4-25,11.1-32.2,4.3
		c-6.7-6.4-12.6-13.7-17.9-21.2c-2.1-2.9-2.2-7.7-2.1-11.6c0-4.9,0.2-10.1,1.9-14.6c6.3-17.1,1.5-30.5-11.4-42.6
		c-6.5-6.1-11.2-14.1-16.9-21.1c-14.3-17.6-16.7-37.6-7.7-57.3c9.6-21,21.6-41.1,33.8-60.7c7.5-12,25.1-10.2,31.2,2.5
		c7.4,15.4,14.4,31.1,21.1,46.8c5.2,12.4,0.8,24.7-2.2,36.7c-1.5,5.8-11.6,6-15.9,0.2c-6.3-8.3-11.6-17.4-18-25.6
		c-2.6-3.3-7-5.2-10.6-7.8C58.2,97.5,57.3,98.6,56.4,99.7z"/>
	<path class="st0" d="M210.2,158.5c3.1-6.1,5.9-10.8,7.9-15.9c2.1-5.3,1.1-9-6.1-8.5c-7.7,0.5-15.5,0.1-24.2,0.1
		c0.5,5.9,0.7,11.9,1.6,17.9c0.8,5.4-0.1,8.9-6.3,9.8c-5.1,0.7-10.1,2.2-16.1,3.5c-3.5-23.2-8.5-45.6-4.6-68
		c1.4-7.9,7.5-15.8,13.2-22.1c8.3-9.2,17.9-17.3,27.4-25.3c5.9-4.9,13.3-5.7,19.5-1.2c11.9,8.7,23.2,18.1,34.4,27.7
		c1.8,1.6,2.5,5.9,1.9,8.6c-5,21.2-10.4,42.2-15.8,63.3c-0.4,1.4-0.8,2.8-1.4,4.1c-4.8,11.4-7.8,12.8-19.7,9.4
		C218.3,160.9,214.7,159.8,210.2,158.5z M219.8,100.6c0.4-0.1,0.7-0.1,1.1-0.2c-1.6-8.5-2.9-17.1-5.1-25.4c-0.7-2.7-3.4-6.3-5.8-6.8
		c-1.9-0.4-5.7,2.9-6.7,5.3c-4.3,9.8-8.1,19.8-11.6,29.9c-2,5.9,1,10,6.3,12.7c13,6.6,21.7,1.5,21.8-12.9
		C219.8,102.3,219.8,101.5,219.8,100.6z"/>
	<path class="st0" d="M254.7,213.2c-10.2-1.8-18.1-0.8-22.7-8.8c-0.9-1.6-5.3-1.6-8.1-1.7c-22.8-1-44.5,3-64.7,14.1
		c-1.5,0.8-3.2,1.3-4.8,1.9c-0.5-0.5-1.1-0.8-1.3-1.2c-6.4-15.5-6.6-15.7,5.7-26.7c6.7-5.9,13.5-12.6,21.4-16
		c25.6-10.9,58.7-1.3,74.8,21.5C257.7,199.9,255,207,254.7,213.2z"/>
	<path class="st0" d="M156.5,171c1,1.3,1.7,1.7,1.7,2.1c0.6,9.2-19.6,25-28.3,22.2c-13.7-4.5-22.2-17.7-18.6-33.1
		c5.8-25,20.3-45.6,36.3-67.5c5.6,11,5.6,20.9,2.6,30.1c-4.3,12.9-9.8,25.4-15.6,37.6c-2.8,6-4,10.9,1.8,15.3
		c5.8,4.4,10.8,2.5,15.4-2.3C153.1,173.9,154.6,172.7,156.5,171z M138.7,123c-0.8-0.3-1.7-0.6-2.5-0.8c-4.1,9-8.3,18-13,28.3
		C133.6,148.8,140.3,134.9,138.7,123z"/>
	<path class="st0" d="M243.5,227.9c-12,29.1-21.6,35-51,33.4c-19-1-29.2-11.9-37.9-41.7c10,2,19.2,3.4,28.1,5.8
		c10.6,2.9,21.1,6.3,31.4,10.2c8.3,3.2,14.4,0,20.8-4.4C237,229.9,239.5,229.4,243.5,227.9z M186.9,233.7c5.4,9.2,13.6,8.2,22,6.1
		C201.7,237.8,194.5,235.8,186.9,233.7z"/>
	<path class="st0" d="M264.9,157.7c-2.4,5.2-4.7,10.3-7.3,16c-5-2.2-9.1-4.2-6.1-10.7c0.5-1,0.8-2.2,1.2-3.3
		c6.6-19.2,13.2-38.3,20.7-60.1c7,6.2,14.2,11,19.4,17.4c5.9,7.4,4.7,14.7-1.5,22.2c-0.4,0.4-0.7,0.9-1.2,1.3
		c-12.3,9.9-16.6,21.5-8.1,36.1c1,1.7,1.3,3.9,1.4,5.9c0,1.5-0.4,3.8-1.4,4.5c-1,0.7-3.3,0.1-4.6-0.6c-12.4-6.5-13.5-9.1-11.5-23.5
		c0.2-1.6,0.2-3.2,0.3-4.8C265.7,157.9,265.3,157.8,264.9,157.7z M269.8,136.8c0.5,1.1,1,2.1,1.5,3.2c4.2-1.2,8.4-2.3,12.6-3.5
		c-1.8-4.6-3.6-9.1-5.4-13.7c-1,0.2-2,0.5-3,0.7C273.6,127.9,271.7,132.3,269.8,136.8z"/>
	<path class="st0" d="M173.8,215.9c18.1-10,52.6-12.4,59.7-2.9c-9.9,2-19,3.8-27.4,5.4c7.9,2.4,16.9,5.1,27,8.1
		c-5.8,5.5-10.5,7.7-17.3,5.3c-11.1-4-22.6-7.3-33.8-11.1C179.3,219.7,176.9,217.7,173.8,215.9z"/>
	<path d="M219.8,100.6c0,0.9,0,1.7,0,2.6c-0.1,14.4-8.8,19.5-21.8,12.9c-5.3-2.7-8.3-6.8-6.3-12.7c3.5-10.1,7.3-20.1,11.6-29.9
		c1.1-2.4,4.9-5.7,6.7-5.3c2.3,0.5,5,4,5.8,6.8c2.2,8.4,3.5,16.9,5.1,25.4C220.5,100.5,220.2,100.5,219.8,100.6z"/>
	<path d="M138.7,123c1.6,11.8-5,25.8-15.5,27.4c4.7-10.3,8.9-19.3,13-28.3C137,122.5,137.9,122.8,138.7,123z"/>
	<path d="M186.9,233.7c7.5,2.1,14.8,4.1,22,6.1C200.5,241.8,192.4,242.9,186.9,233.7z"/>
	<path d="M269.8,136.8c1.9-4.4,3.8-8.9,5.8-13.3c1-0.2,2-0.5,3-0.7c1.8,4.6,3.6,9.1,5.4,13.7c-4.2,1.2-8.4,2.3-12.6,3.5
		C270.8,138.9,270.3,137.8,269.8,136.8z"/>
</g>
</svg>
