<?xml version="1.0" encoding="utf-8"?>
<!-- Generator: Adobe Illustrator 19.1.0, SVG Export Plug-In . SVG Version: 6.00 Build 0)  -->
<svg version="1.1" id="Layer_1" xmlns="http://www.w3.org/2000/svg" xmlns:xlink="http://www.w3.org/1999/xlink" x="0px" y="0px"
	 viewBox="0 0 409.9 291.1" style="enable-background:new 0 0 409.9 291.1;" xml:space="preserve">
<style type="text/css">
	.st0{fill:#FFFFFF;}
</style>
<g>
	<g id="XMLID_1_">
		<g>
			<path class="st0" d="M406.9,94.7c5.1,12.2,4.1,22.8-4.9,33c-18.4,21-36.4,42.3-54.6,63.5c-3.4,4-6.9,7.8-10.5,11.9
				c4,9.3,7.9,18.3,11.8,27.2c4.1,9.4,2.8,18-3.4,26.2c-10.2,13.4-23.9,20.8-40.3,20.9c-6.1,0-13.8-3.7-17.9-8.3
				c-8.8-9.9-15.8-21.5-23.5-32.5c-1.6-2.3-3-4.8-5.1-8.2c-12.5,24.6-24.6,47.2-57.4,46.3c-31-0.9-48.7-15.6-56.7-46.5
				c-9,16.7-16.6,31.3-24.7,45.8c-10,17.7-40.4,23.2-55.5,9.5c-7.7-6.9-14-15.5-20.4-23.7c-6.9-8.9-6.1-20-3.2-29.4
				c5.5-18,1.1-31.8-12.2-44.2c-4.8-4.5-8.2-10.5-12.4-15.7c-18-22.5-20.3-47.7-8.9-73C16.6,76,28.4,55.4,41.4,35.9
				C56,13.8,86.2,16.6,97.9,40.4c9.6,19.4,17.9,39.4,25.8,56.9c17.6-15.9,36.2-32.8,55-49.5c4.1-3.6,9-6.3,13.8-9.2
				c16.1-9.8,32.1-9.5,47.3,1.5c10.1,7.3,19.5,15.5,29.6,23.7c1.1-2.9,2.3-6,3.5-9.1c6.6-17.4,16.1-32.9,29.3-46
				c9.7-9.7,20.8-11.5,32.5-4.4c7.9,4.8,15.6,10.2,22.4,16.5C379.4,41.5,395.3,66.6,406.9,94.7z M390.6,118.2
				c2.8-3.3,5.4-9.5,4.1-12.9c-12.7-35.6-32.8-66-64.9-87.1c-8.7-5.7-13.3-5.5-19.4,3.1c-9,12.7-16.5,26.4-24.5,39.8
				c-2.8,4.8-1.5,8.9,1.7,13.5c12,17.1,23.9,34.4,35.1,52c3.3,5.2,4.3,12,6.4,18c-0.8,0.3-1.6,0.7-2.4,1c-1.1-1.5-2.2-3-3.2-4.5
				c-9.3,12.1-18.2,23.9-27.4,35.5c-7.4,9.4-15,18.5-22.5,27.8c-5,6.1-5.6,12.2-0.9,19c6.6,9.6,12.5,19.6,19.2,29.1
				c8.7,12.2,14.4,13.7,27.8,6.8c4.8-2.5,9-6.3,13-10c4.1-3.9,5.1-8.7,2.4-14.3c-3.7-7.5-6.6-15.5-10.6-22.9
				c-1.7-3.1-5.5-5.1-8.6-7.9c0,0,1.4-1.4,2.7-2.9C342.7,173.6,366.9,146.1,390.6,118.2z M291.2,139.3c6.2-7.5,7.5-14.8,1.5-22.2
				c-5.2-6.4-12.3-11.2-19.4-17.4c-7.5,21.7-14.1,40.9-20.7,60.1c-0.4,1.1-0.7,2.2-1.2,3.3c-3,6.4,1.1,8.5,6.1,10.7
				c2.6-5.7,4.9-10.8,7.3-16c0.4,0.1,0.8,0.3,1.2,0.4c-0.1,1.6-0.1,3.2-0.3,4.8c-2,14.4-0.8,17,11.5,23.5c1.3,0.7,3.6,1.3,4.6,0.6
				c1-0.7,1.5-2.9,1.4-4.5c-0.1-2-0.4-4.2-1.4-5.9c-8.5-14.6-4.1-26.2,8.1-36.1C290.5,140.2,290.8,139.7,291.2,139.3z M258.7,85.2
				c0.6-2.6-0.1-7-1.9-8.6c-11.2-9.6-22.5-19-34.4-27.7c-6.2-4.5-13.6-3.8-19.5,1.2c-9.5,8-19.1,16.1-27.4,25.3
				c-5.7,6.3-11.8,14.1-13.2,22.1c-3.9,22.5,1.1,44.8,4.6,68.1c6.1-1.3,11-2.8,16.1-3.5c6.2-0.9,7.2-4.4,6.3-9.8
				c-0.9-5.9-1.1-11.9-1.6-17.9c8.7,0,16.5,0.4,24.2-0.1c7.3-0.5,8.2,3.1,6.1,8.5c-2,5.1-4.8,9.8-7.9,15.9c4.5,1.3,8,2.4,11.6,3.4
				c11.9,3.4,14.9,2,19.7-9.4c0.6-1.3,1-2.7,1.4-4.1C248.2,127.3,253.7,106.3,258.7,85.2z M254.7,213.2c0.3-6.2,3-13.4,0.6-16.9
				c-16.1-22.9-49.2-32.4-74.8-21.5c-8,3.4-14.8,10-21.4,16c-12.4,11-12.1,11.2-5.8,26.7c0.2,0.4,0.8,0.7,1.3,1.2
				c1.6-0.6,3.2-1.1,4.8-1.9c20.2-11.1,41.9-15,64.7-14.1c2.8,0.1,7.2,0.1,8.1,1.7C236.6,212.5,244.5,211.5,254.7,213.2z
				 M243.5,227.9c-4,1.5-6.6,2-8.5,3.4c-6.4,4.4-12.6,7.6-20.8,4.4c-10.3-4-20.8-7.3-31.4-10.2c-9-2.4-18.2-3.8-28.2-5.8
				c8.7,29.8,18.9,40.6,37.9,41.7C222,262.9,231.5,257,243.5,227.9z M215.8,231.8c6.7,2.4,11.5,0.2,17.2-5.2
				c-10.1-3-19.1-5.7-27-8.1c8.4-1.7,17.5-3.5,27.4-5.4c-7.1-9.5-41.6-7.1-59.7,2.9c3.1,1.8,5.5,3.8,8.3,4.7
				C193.3,224.5,204.7,227.8,215.8,231.8z M129.9,195.3c8.7,2.9,28.9-13,28.3-22.2c0-0.5-0.6-0.9-1.7-2.1c-1.9,1.7-3.4,2.9-4.8,4.4
				c-4.6,4.8-9.6,6.6-15.4,2.3c-5.8-4.4-4.6-9.3-1.8-15.3c5.8-12.3,11.4-24.8,15.6-37.6c3-9.2,3-19-2.6-30.1
				c-16,21.9-30.6,42.5-36.3,67.5C107.7,177.6,116.3,190.8,129.9,195.3z M135.5,213.5c-7.4-7.2-8.4-7.3-13.9-1.4
				c-8,8.8-16.1,17.6-23.9,26.6c-1.2,1.4-0.9,4-1.4,6c-20.3,0.8-27.2-8.8-19.7-27.6c1.5-3.8,3.4-7.4,5.4-10.9
				c4.2-7.3,8.5-14.5,12.9-21.7c4.4-7.1,5.1-14-0.7-21.3c-5.1,3.7-10.3,7.3-15.3,11.2c-6.1,4.8-11.5,5.1-16.2-1.6
				c-6.7-9.5-13.4-18.9-20-28.5c-4-5.9-3.7-12.2,0.1-18c5.4-8.2,11.2-16.1,17.1-24.7c-0.9-0.5-2.3-1.4-3.7-2.2
				c0.9-1.1,1.8-2.2,2.7-3.2c3.6,2.6,8,4.4,10.6,7.8c6.4,8.2,11.7,17.3,18,25.7c4.4,5.8,14.5,5.6,16-0.2c3-12,7.4-24.3,2.2-36.7
				c-6.7-15.8-13.7-31.4-21.1-46.8C78.6,33.5,61,31.6,53.5,43.7c-12.2,19.7-24.2,39.7-33.8,60.7c-9,19.7-6.6,39.7,7.7,57.3
				c5.7,7,10.4,15,16.9,21.1c12.9,12.1,17.7,25.5,11.4,42.6c-1.7,4.5-1.9,9.7-1.9,14.6c0,3.9,0.1,8.7,2.1,11.6
				c5.3,7.5,11.2,14.8,17.9,21.2c7.1,6.8,27.4,4.1,32.2-4.3C116.3,250.3,125.8,231.7,135.5,213.5z"/>
			<path d="M394.7,105.3c1.2,3.5-1.3,9.7-4.1,12.9c-23.7,27.9-47.9,55.4-72,83c-1.3,1.5-2.7,2.9-2.7,2.9c3.1,2.7,6.8,4.7,8.6,7.9
				c4,7.4,6.9,15.4,10.6,22.9c2.7,5.6,1.7,10.4-2.4,14.3c-4,3.7-8.2,7.5-13,10c-13.4,6.9-19.1,5.5-27.8-6.8
				c-6.7-9.5-12.6-19.5-19.2-29.1c-4.6-6.8-4.1-12.9,0.9-19c7.5-9.2,15.2-18.4,22.5-27.8c9.2-11.6,18.1-23.4,27.4-35.5
				c1,1.5,2.1,3,3.2,4.5c0.8-0.3,1.6-0.7,2.4-1c-2.1-6-3-12.8-6.4-18c-11.2-17.6-23.1-34.9-35.1-52c-3.2-4.6-4.5-8.7-1.7-13.5
				c8-13.4,15.5-27.2,24.5-39.8c6.1-8.6,10.8-8.8,19.4-3.1C361.9,39.3,382,69.7,394.7,105.3z"/>
			<path d="M292.7,117.1c5.9,7.4,4.6,14.7-1.5,22.2c-0.4,0.4-0.7,0.9-1.1,1.3c-12.3,9.9-16.6,21.5-8.1,36.1c1,1.7,1.4,3.9,1.4,5.9
				c0,1.5-0.4,3.8-1.4,4.5c-1,0.7-3.3,0.1-4.6-0.6c-12.4-6.5-13.5-9.1-11.5-23.5c0.2-1.6,0.2-3.2,0.3-4.8c-0.4-0.1-0.8-0.3-1.2-0.4
				c-2.4,5.2-4.7,10.3-7.3,16c-5-2.2-9.1-4.2-6.1-10.7c0.5-1.1,0.8-2.2,1.2-3.3c6.6-19.2,13.2-38.3,20.7-60.1
				C280.4,105.9,287.5,110.7,292.7,117.1z M283.9,136.5c-1.8-4.6-3.6-9.1-5.4-13.7c-1,0.2-2,0.5-3,0.7c-1.9,4.4-3.8,8.9-5.8,13.3
				c0.5,1.1,1,2.1,1.5,3.2C275.5,138.8,279.7,137.6,283.9,136.5z"/>
			<path class="st0" d="M278.5,122.8c1.8,4.6,3.6,9.1,5.4,13.7c-4.2,1.2-8.4,2.3-12.6,3.5c-0.5-1.1-1-2.1-1.5-3.2
				c1.9-4.4,3.8-8.9,5.8-13.3C276.5,123.3,277.5,123,278.5,122.8z"/>
			<path d="M256.8,76.6c1.8,1.6,2.5,5.9,1.9,8.6c-5,21.2-10.4,42.2-15.8,63.3c-0.4,1.4-0.8,2.8-1.4,4.1c-4.8,11.4-7.8,12.8-19.7,9.4
				c-3.6-1-7.1-2.1-11.6-3.4c3.1-6.1,5.9-10.8,7.9-15.9c2.1-5.3,1.1-9-6.1-8.5c-7.7,0.5-15.5,0.1-24.2,0.1
				c0.5,5.9,0.7,11.9,1.6,17.9c0.8,5.4-0.1,8.9-6.3,9.8c-5.1,0.7-10.1,2.2-16.1,3.5c-3.5-23.2-8.5-45.6-4.6-68.1
				c1.4-7.9,7.5-15.8,13.2-22.1c8.3-9.2,17.9-17.3,27.4-25.3c5.9-4.9,13.3-5.7,19.5-1.2C234.2,57.6,245.6,67,256.8,76.6z
				 M219.8,100.6c0.3-0.1,0.7-0.1,1.1-0.2c-1.6-8.5-2.9-17.1-5.1-25.4c-0.7-2.7-3.4-6.3-5.8-6.8c-1.9-0.4-5.6,2.9-6.7,5.3
				c-4.3,9.8-8.1,19.8-11.6,29.9c-2,5.9,0.9,10,6.3,12.7c13,6.6,21.7,1.5,21.8-12.9C219.8,102.3,219.8,101.5,219.8,100.6z"/>
			<path d="M255.3,196.3c2.5,3.5-0.2,10.7-0.6,16.9c-10.2-1.8-18.1-0.8-22.7-8.8c-0.9-1.6-5.3-1.6-8.1-1.7
				c-22.8-0.9-44.5,3-64.7,14.1c-1.5,0.8-3.2,1.3-4.8,1.9c-0.5-0.5-1.1-0.8-1.3-1.2c-6.4-15.5-6.6-15.7,5.8-26.7
				c6.6-5.9,13.5-12.6,21.4-16C206.1,163.9,239.1,173.5,255.3,196.3z"/>
			<path d="M235,231.2c2-1.3,4.5-1.8,8.5-3.4c-12,29.1-21.6,35-51,33.4c-19-1-29.2-11.9-37.9-41.7c10,2,19.2,3.4,28.2,5.8
				c10.6,2.9,21.1,6.3,31.4,10.2C222.4,238.8,228.6,235.6,235,231.2z M186.9,233.7c5.4,9.2,13.6,8.2,22,6.1
				C201.7,237.8,194.5,235.8,186.9,233.7z"/>
			<path d="M233.1,226.5c-5.8,5.5-10.5,7.7-17.2,5.2c-11.1-4-22.6-7.3-33.8-11.1c-2.8-1-5.2-2.9-8.3-4.7c18.1-10,52.6-12.4,59.7-2.9
				c-9.9,2-19,3.8-27.4,5.4C214,220.8,223,223.5,233.1,226.5z"/>
			<path class="st0" d="M220.9,100.4c-0.4,0.1-0.7,0.1-1.1,0.2c0,0.9,0,1.7,0,2.6c-0.1,14.4-8.8,19.5-21.8,12.9
				c-5.3-2.7-8.3-6.8-6.3-12.7c3.5-10.1,7.3-20.1,11.6-29.9c1.1-2.4,4.9-5.7,6.7-5.3c2.3,0.5,5.1,4,5.8,6.8
				C217.9,83.3,219.2,91.9,220.9,100.4z"/>
			<path class="st0" d="M208.9,239.8c-8.4,2.1-16.5,3.1-22-6.1C194.5,235.8,201.7,237.8,208.9,239.8z"/>
			<path d="M158.2,173.1c0.6,9.2-19.6,25-28.3,22.2c-13.7-4.5-22.2-17.7-18.6-33.1c5.8-25,20.3-45.6,36.3-67.5
				c5.6,11,5.6,20.9,2.6,30.1c-4.2,12.9-9.8,25.4-15.6,37.6c-2.8,6-4,10.9,1.8,15.3c5.8,4.4,10.8,2.5,15.4-2.3
				c1.4-1.4,2.9-2.7,4.8-4.4C157.6,172.3,158.2,172.7,158.2,173.1z M123.2,150.5c10.4-1.7,17.1-15.6,15.5-27.4
				c-0.8-0.3-1.6-0.6-2.5-0.8C132.1,131.2,127.9,140.2,123.2,150.5z"/>
			<path class="st0" d="M138.7,123c1.6,11.8-5,25.7-15.5,27.4c4.7-10.3,8.9-19.3,13-28.3C137,122.5,137.8,122.8,138.7,123z"/>
			<path d="M121.6,212.2c5.4-5.9,6.5-5.8,13.9,1.4c-9.7,18.2-19.2,36.8-29.5,54.9c-4.8,8.4-25,11.1-32.2,4.3
				c-6.7-6.4-12.6-13.7-17.9-21.2c-2.1-2.9-2.2-7.7-2.1-11.6c0-4.9,0.2-10.1,1.9-14.6c6.3-17.1,1.5-30.5-11.4-42.6
				c-6.5-6.1-11.2-14.1-16.9-21.1c-14.3-17.6-16.7-37.6-7.7-57.3c9.6-21,21.6-41.1,33.8-60.7c7.5-12,25.1-10.2,31.2,2.5
				c7.4,15.4,14.4,31.1,21.1,46.8c5.2,12.4,0.8,24.7-2.2,36.7c-1.5,5.8-11.6,6-16,0.2c-6.3-8.3-11.6-17.4-18-25.7
				c-2.6-3.3-7-5.2-10.6-7.8c-0.9,1.1-1.8,2.2-2.7,3.2c1.4,0.8,2.8,1.7,3.7,2.2c-6,8.5-11.7,16.5-17.1,24.7
				c-3.8,5.8-4.2,12.1-0.1,18c6.5,9.6,13.3,19,20,28.5c4.8,6.7,10.2,6.4,16.2,1.6c5-3.9,10.2-7.5,15.3-11.2c5.7,7.2,5,14.2,0.7,21.3
				c-4.4,7.2-8.7,14.4-12.9,21.7c-2,3.5-3.9,7.2-5.4,10.9c-7.5,18.8-0.6,28.3,19.7,27.6c0.4-2.1,0.2-4.7,1.4-6
				C105.5,229.8,113.6,221,121.6,212.2z"/>
		</g>
		<g>
		</g>
	</g>
</g>
</svg>
